<svg xmlns="http://www.w3.org/2000/svg" viewBox="0 0 206 30" width="300" height="44">
  <defs>
    <linearGradient id="blueTextGradient" x1="0%" y1="0%" x2="0%" y2="100%">
      <stop offset="0%" stop-color="#00c6ff" /> <stop offset="100%" stop-color="#0072ff" /> </linearGradient>
  </defs>
  
  <g fill="url(#blueTextGradient)">
    <path d="M16 0a5 5 0 015 5v10A14.983 14.983 0 016.065 30H1v-.35a12.992 12.992 0 006.19-3.46 12.97 12.97 0 003.753-10.429 5.03 5.03 0 00.058-.76V5a5 5 0 015-5Z"></path>
    <path d="M10 15.99a12.97 12.97 0 01-3.81 9.2A12.992 12.992 0 010 28.65V24a5 5 0 015-5 5.002 5.002 0 004.943-4.238c.038.404.058.813.058 1.227ZM44.998 0h4.747l-2.967 14.238c-.79 3.774-1.828 6.329-3.11 7.665-1.283 1.336-3.255 2.004-5.917 2.004-2.256 0-3.944-.518-5.067-1.555-1.122-1.037-1.683-2.448-1.683-4.233 0-.375.026-.791.08-1.251l4.473-.481a8.97 8.97 0 00-.096 1.17c0 .749.214 1.32.641 1.716.428.396 1.085.593 1.973.593 1.24 0 2.11-.363 2.613-1.09.374-.556.829-2.122 1.363-4.698L44.998 0Zm8.178 6.478h4.602l-2.1 10.085c-.257 1.208-.386 1.962-.386 2.261 0 .492.182.914.545 1.267.364.353.829.529 1.395.529.407 0 .807-.075 1.203-.225a5.57 5.57 0 001.219-.705c.416-.32.79-.684 1.122-1.09.331-.407.641-.941.93-1.604.203-.491.422-1.293.657-2.405l1.7-8.113h4.602l-3.56 17.028h-4.297l.481-2.309c-1.881 1.807-3.928 2.71-6.141 2.71-1.4 0-2.501-.4-3.303-1.203-.802-.801-1.203-1.876-1.203-3.222 0-.588.182-1.759.546-3.512l1.988-9.492Zm19.962 0h4.33l-.433 2.068c1.689-1.646 3.463-2.469 5.323-2.469 1.283 0 2.272.267 2.966.802.695.534 1.139 1.272 1.331 2.212.588-.855 1.433-1.571 2.534-2.148 1.1-.577 2.244-.866 3.431-.866 1.358 0 2.416.363 3.175 1.09.759.727 1.138 1.69 1.138 2.886 0 .588-.15 1.604-.449 3.047l-2.18 10.406h-4.602l2.18-10.406c.268-1.304.401-2.042.401-2.213 0-.47-.144-.839-.433-1.106-.278-.278-.7-.417-1.266-.417-1.144 0-2.165.604-3.063 1.812-.652.866-1.208 2.4-1.668 4.602l-1.619 7.728h-4.602l2.149-10.294c.246-1.186.369-1.956.369-2.309 0-.449-.155-.818-.465-1.106-.3-.289-.717-.433-1.251-.433-.502 0-1.02.15-1.555.449a4.67 4.67 0 00-1.411 1.235c-.396.523-.738 1.197-1.027 2.02-.128.385-.336 1.256-.625 2.614l-1.635 7.824h-4.602l3.56-17.028Zm29.215 0h4.361l-.369 1.748c.93-.77 1.801-1.32 2.614-1.652a6.848 6.848 0 012.613-.497c1.786 0 3.218.615 4.298 1.844 1.09 1.23 1.635 3.062 1.635 5.5 0 3.067-.935 5.66-2.806 7.776-1.603 1.807-3.501 2.71-5.692 2.71-2.256 0-3.961-.914-5.115-2.742L102.048 30h-4.602l4.907-23.522Zm2.774 9.765c0 1.325.32 2.357.962 3.094.652.727 1.416 1.09 2.293 1.09.759 0 1.491-.272 2.196-.817.706-.556 1.288-1.47 1.748-2.742.47-1.283.705-2.47.705-3.56 0-1.272-.304-2.244-.913-2.918-.61-.684-1.385-1.026-2.325-1.026-.877 0-1.679.315-2.406.946-.716.62-1.272 1.54-1.667 2.758-.396 1.208-.593 2.266-.593 3.175ZM133.421 0h4.719l-2.949 14.238c-.787 3.774-1.817 6.329-3.093 7.665-1.275 1.336-3.236 2.004-5.882 2.004-2.242 0-3.921-.518-5.037-1.555s-1.674-2.448-1.674-4.233c0-.375.027-.791.08-1.251l4.447-.481c-.063.47-.095.86-.095 1.17 0 .749.212 1.32.637 1.716.425.396 1.079.593 1.961.593 1.233 0 2.099-.363 2.598-1.09.372-.556.824-2.122 1.355-4.698L133.421 0Zm8.13 6.478h4.575l-2.088 10.085c-.255 1.208-.383 1.962-.383 2.261 0 .492.181.914.542 1.267.362.353.824.529 1.387.529a3.34 3.34 0 001.196-.225 5.52 5.52 0 001.211-.705c.415-.32.787-.684 1.116-1.09.329-.407.638-.941.925-1.604.201-.491.419-1.293.653-2.405l1.69-8.113h4.575l-3.539 17.028h-4.272l.478-2.309c-1.87 1.807-3.905 2.71-6.105 2.71-1.392 0-2.487-.4-3.284-1.203-.797-.801-1.196-1.876-1.196-3.222 0-.588.181-1.759.542-3.512l1.977-9.492Zm19.846 0h4.304l-.43 2.068c1.679-1.646 3.443-2.469 5.292-2.469 1.275 0 2.258.267 2.949.802.691.534 1.132 1.272 1.323 2.212.585-.855 1.424-1.571 2.519-2.148 1.094-.577 2.232-.866 3.411-.866 1.35 0 2.402.363 3.156 1.09.755.727 1.132 1.69 1.132 2.886 0 .588-.149 1.604-.446 3.047l-2.168 10.406h-4.575l2.168-10.406c.266-1.304.398-2.042.398-2.213 0-.47-.143-.839-.43-1.106-.276-.278-.696-.417-1.259-.417-1.137 0-2.152.604-3.045 1.812-.648.866-1.201 2.4-1.658 4.602l-1.61 7.728h-4.575l2.136-10.294c.245-1.186.367-1.956.367-2.309 0-.449-.154-.818-.462-1.106-.298-.289-.712-.433-1.244-.433-.499 0-1.015.15-1.546.449-.531.3-.999.71-1.403 1.235-.393.523-.733 1.197-1.02 2.02-.127.385-.335 1.256-.622 2.614l-1.626 7.824h-4.575l3.539-17.028Zm29.044 0h4.336l-.367 1.748c.925-.77 1.791-1.32 2.599-1.652a6.776 6.776 0 012.598-.497c1.775 0 3.199.615 4.272 1.844 1.084 1.23 1.626 3.062 1.626 5.5 0 3.067-.93 5.66-2.789 7.776-1.595 1.807-3.481 2.71-5.659 2.71-2.243 0-3.938-.914-5.086-2.742L190.138 30h-4.575l4.878-23.522Zm2.758 9.765c0 1.325.319 2.357.956 3.094.649.727 1.408 1.09 2.293 1.09.759 0 1.482-.272 2.184-.817.701-.556 1.28-1.47 1.737-2.742.468-1.283.702-2.47.702-3.56 0-1.272-.303-2.244-.909-2.918-.606-.684-1.376-1.026-2.311-1.026-.872 0-1.669.315-2.391.946-.712.62-1.265 1.54-1.658 2.758-.393 1.208-.59 2.266-.59 3.175Z"></path>
  </g>
</svg>
