<?xml version="1.0" encoding="utf-8"?>
<!-- Generator: Adobe Illustrator 26.0.3, SVG Export Plug-In . SVG Version: 6.00 Build 0)  -->
<svg version="1.0" id="Layer_1" xmlns="http://www.w3.org/2000/svg" xmlns:xlink="http://www.w3.org/1999/xlink" x="0px" y="0px"
	 viewBox="0 0 1134.2 818.8" style="enable-background:new 0 0 1134.2 818.8;" xml:space="preserve">
<style type="text/css">
	.st0{fill:#C209C1;}
	.st1{fill:none;}
</style>
<path class="st0" d="M569.4,603.1c-7.1-5.1-17.3-8.5-31.9-10.8c-18.2-3.1-28-6.4-28-15c0-6.7,6.2-13.8,23.7-13.8
	c8.6,0,15.2,2.7,19.7,8.1c2.2,2.8,3.8,6,4.7,9.4c0.4,1.5,1.7,2.5,3.2,2.5h15.8c1,0,1.9-0.4,2.6-1.2c0.6-0.8,0.9-1.8,0.7-2.8
	c-1.7-10.3-7-19.6-14.9-26.4c-8.2-6.6-18.9-9.9-31.8-9.9c-13.5,0-25,3.3-33.5,9.5c-8.5,6.2-13.2,15-13.2,25.2
	c0,24.2,22.3,31.2,46.4,35.2c22.8,3.4,25.9,9.6,25.9,15.2c0,9.1-9.8,14.7-25.5,14.7c-2.6,0-5.2-0.2-7.8-0.7c-0.1,0-0.1-0.1-0.2-0.1
	c-10.4-2.1-17.4-8.5-21.3-19.7c-0.5-1.3-1.7-2.2-3.2-2.2h-16.6c-1.9,0-3.4,1.5-3.4,3.3c0,0.2,0,0.4,0.1,0.6
	c0.8,4.2,2.3,8.2,4.3,11.9l0,0c7.2,15.4,20.9,24.6,39.9,26.7h0.1c2.7,0.3,5.4,0.4,8.1,0.4c13.7,0,26-3.5,34.8-9.8
	c8.8-6.3,13.8-15.5,13.8-25.6C581.7,617.2,577.7,609,569.4,603.1z"/>
<path class="st0" d="M346.9,544h-20.1c-1.2,0-2.1,0.9-2.1,2.1c0,0,0,0,0,0v114.5c0,1.2,0.9,2.1,2.1,2.1h20.1c1.2,0,2.1-0.9,2.1-2.1
	c0,0,0,0,0,0V546.1C349,545,348.1,544,346.9,544z"/>
<path class="st0" d="M919.1,629.7c-0.9-1.1-2.2-1.8-3.7-1.8h-15.7c-2,0-3.7,1.2-4.4,3c-2.5,6.4-8.4,9.8-17,9.8h-0.1
	c-12.1,0-18.5-6.5-18.5-18.7v-55.6c0-0.5,0.4-0.8,0.8-0.8h47.1c2.6,0,4.7-2.1,4.7-4.7c0,0,0,0,0,0v-12.3c0-2.6-2.1-4.7-4.7-4.7
	c0,0,0,0,0,0h-47.1c-0.5,0-0.8-0.4-0.8-0.8l0,0V518c0-2.6-2.1-4.7-4.7-4.7c0,0,0,0,0,0h-15c-2.6,0-4.7,2.1-4.7,4.7v105
	c0,24.5,16.7,40.4,42.6,40.4h0.6c21.7,0,37.2-11.1,41.4-29.8C920.3,632.2,920,630.8,919.1,629.7z"/>
<path class="st0" d="M809.9,558.5c-20-20-52.3-20.3-72.7-0.7c-10.1,9.7-15.8,23-15.8,37v65.8c0,1.2,1,2.1,2.1,2.1h20
	c1.2,0,2.1-0.9,2.1-2.1c0,0,0,0,0,0v-66.5c0-7.3,3-14.2,8.2-19.2c5.3-5.1,12.4-7.9,19.7-7.7c14.2,0.3,26.7,12.4,26.7,25.8v1.2
	c0,0.6,0.2,1.1,0.6,1.5c0.4,0.4,1,0.6,1.5,0.6h20c1.2,0,2.2-1,2.2-2.1l0,0v-0.1C824.7,580.7,819.4,567.9,809.9,558.5z"/>
<path class="st0" d="M468.8,620.5H451c-0.7,0-1.4,0.3-1.9,0.9c-0.2,0.2-0.4,0.5-0.5,0.8c-4.8,12.4-15.1,19.5-28.3,19.5
	c-9.5,0.1-18.5-3.8-24.9-10.8c-6.3-6.9-9.7-16.6-9.7-27.4s3.4-20.6,9.7-27.6c6.4-7,15.4-10.9,24.9-10.8c13.3,0,23.7,7.2,28.5,19.7
	c0.4,1,1.3,1.7,2.4,1.7H469c0.8,0,1.6-0.4,2.1-1c0.4-0.5,0.6-1.2,0.5-1.9c-0.1-1.8-0.4-3.5-0.9-5.2c-0.1-0.3-0.2-0.9-0.2-0.9
	c-1.7-5.4-4.4-10.4-8-14.8l0,0c-9.7-12.5-24.7-19.4-42.1-19.4c-16.7,0-31.8,6.4-42.5,18c-10.2,11.1-15.8,26.1-15.8,42.2
	c0,16.1,5.6,30.9,15.7,41.9c10.8,11.8,25.5,18,42.6,18c6.8,0.1,13.5-1,19.9-3.2c13.8-5.4,24.6-14.6,30.3-31.6
	c0.5-1.7,0.8-3.5,0.9-5.2c0.1-0.7-0.1-1.3-0.5-1.9C470.4,620.9,469.6,620.5,468.8,620.5z"/>
<path class="st0" d="M337,495.9c-9.9-0.1-18,7.8-18.2,17.7c-0.1,9.9,7.8,18,17.7,18.2c9.9,0.1,18-7.8,18.2-17.7c0-0.1,0-0.1,0-0.2
	C354.7,504,346.8,496,337,495.9z"/>
<path class="st0" d="M253,495.9L253,495.9c-15.4,0-30.2,6.1-41,16.9c-1,1-3,3.2-3,3.2c-0.7,0.8-1.3,1.5-1.9,2.3l-0.2,0.3
	c-7.8,10-12.2,22.2-12.7,34.9v107.1c0,0.4,0.1,0.8,0.4,1.2c0.4,0.6,1.1,0.9,1.8,0.9h20c1.2,0,2.1-0.9,2.1-2.1c0,0,0,0,0,0v-54.5
	c0-0.4,0.3-0.7,0.7-0.7c0.2,0,0.3,0,0.4,0.1c17.4,12.2,40,14,59.1,4.6c20.6-10.2,33.6-31.2,33.4-54.2
	C312,522.7,285.6,495.9,253,495.9z M253,593.1c-19.8,0-35.8-16.7-35.8-37.1c0-20.5,16.1-37.1,35.8-37.1s35.8,16.7,35.8,37.1
	C288.7,576.5,272.7,593.1,253,593.1z"/>
<path class="st0" d="M707.7,602.6c-0.4-32.8-26.6-59.4-58.8-59.4c-32.5,0-58.9,27-58.9,60.1c-0.1,25.7,16.2,48.7,40.5,57.1l0.3,0.1
	l0.8,0.3c5.5,1.8,11.2,2.6,17,2.6c14.7,0,28.6-5.5,36-13.8c0.2-0.2,0.5-0.3,0.8-0.1c0.1,0.1,0.2,0.3,0.2,0.5v10.6
	c0,1.2,1,2.1,2.2,2.2h17.9c1.2,0,2.2-1,2.2-2.1c0,0,0,0,0,0v-57.9H707.7z M648.9,640.3c-20,0-36.2-16.6-36.2-37
	c0-20.4,16.2-37,36.2-37c20,0,36.2,16.6,36.2,37C685.1,623.7,668.9,640.3,648.9,640.3L648.9,640.3z"/>
<rect x="173.1" y="453.1" class="st1" width="768" height="253"/>
<image style="overflow:visible;enable-background:new    ;" width="420" height="420" xlink:href="62B73C36.png"  transform="matrix(1 0 0 1 347.1111 57.2222)">
</image>
</svg>
